<svg xmlns="http://www.w3.org/2000/svg" xmlns:xlink="http://www.w3.org/1999/xlink" width="840" height="300" viewBox="0 0 840 300"><style type="text/css">.keycap .border{stroke:#000;stroke-width:2}.keycap .inner.border{stroke:rgba(0,0,0,.1)}</style><defs><linearGradient id="DCS"><stop offset="0%" stop-color="#000" stop-opacity="0"/><stop offset="40%" stop-color="#000" stop-opacity=".1"/><stop offset="60%" stop-color="#000" stop-opacity=".1"/><stop offset="100%" stop-color="#000" stop-opacity="0"/></linearGradient><linearGradient id="SPACE" x1="0%" x2="0%" y1="0%" y2="100%"><stop offset="0%" stop-color="#000" stop-opacity=".1"/><stop offset="20%" stop-color="#000" stop-opacity="0"/><stop offset="40%" stop-color="#000" stop-opacity="0"/><stop offset="100%" stop-color="#000" stop-opacity=".1"/></linearGradient><radialGradient id="DSA"><stop offset="0%" stop-color="#000" stop-opacity=".1"/><stop offset="10%" stop-color="#000" stop-opacity=".1"/><stop offset="100%" stop-color="#000" stop-opacity="0"/></radialGradient><radialGradient id="SA" xlink:href="#DSA"/></defs><g transform="translate(10,10)"><rect width="820" height="280" fill="#000" stroke="#ddd" stroke-width="1" rx="6"/><g><g class="keycap" transform="translate(5,5)"><rect width="52" height="52" x="1" y="1" fill="#ccc" class="outer border" rx="5"/><rect width="52" height="52" x="1" y="1" fill="#ccc" rx="5"/><rect width="40" height="40" x="7" y="4" fill="#fcfcfc" class="inner border" rx="5"/><rect width="40" height="40" x="7" y="4" fill="#fcfcfc" rx="5"/></g><g class="keycap" transform="translate(5,5)"><rect width="52" height="52" x="55" y="1" fill="#e26757" class="outer border" rx="5"/><rect width="52" height="52" x="55" y="1" fill="#e26757" rx="5"/><rect width="40" height="40" x="61" y="4" fill="#ff8875" class="inner border" rx="5"/><rect width="40" height="40" x="61" y="4" fill="#ff8875" rx="5"/></g><g class="keycap" transform="translate(5,5)"><rect width="52" height="52" x="109" y="1" fill="#e26757" class="outer border" rx="5"/><rect width="52" height="52" x="109" y="1" fill="#e26757" rx="5"/><rect width="40" height="40" x="115" y="4" fill="#ff8875" class="inner border" rx="5"/><rect width="40" height="40" x="115" y="4" fill="#ff8875" rx="5"/></g><g class="keycap" transform="translate(5,5)"><rect width="52" height="52" x="163" y="1" fill="#e26757" class="outer border" rx="5"/><rect width="52" height="52" x="163" y="1" fill="#e26757" rx="5"/><rect width="40" height="40" x="169" y="4" fill="#ff8875" class="inner border" rx="5"/><rect width="40" height="40" x="169" y="4" fill="#ff8875" rx="5"/></g><g class="keycap" transform="translate(5,5)"><rect width="52" height="52" x="217" y="1" fill="#e26757" class="outer border" rx="5"/><rect width="52" height="52" x="217" y="1" fill="#e26757" rx="5"/><rect width="40" height="40" x="223" y="4" fill="#ff8875" class="inner border" rx="5"/><rect width="40" height="40" x="223" y="4" fill="#ff8875" rx="5"/></g><g class="keycap" transform="translate(5,5)"><rect width="52" height="52" x="271" y="1" fill="#e26757" class="outer border" rx="5"/><rect width="52" height="52" x="271" y="1" fill="#e26757" rx="5"/><rect width="40" height="40" x="277" y="4" fill="#ff8875" class="inner border" rx="5"/><rect width="40" height="40" x="277" y="4" fill="#ff8875" rx="5"/></g><g class="keycap" transform="translate(5,5)"><rect width="52" height="52" x="325" y="1" fill="#e26757" class="outer border" rx="5"/><rect width="52" height="52" x="325" y="1" fill="#e26757" rx="5"/><rect width="40" height="40" x="331" y="4" fill="#ff8875" class="inner border" rx="5"/><rect width="40" height="40" x="331" y="4" fill="#ff8875" rx="5"/></g><g class="keycap" transform="translate(5,5)"><rect width="52" height="52" x="379" y="1" fill="#ccc" class="outer border" rx="5"/><rect width="52" height="52" x="379" y="1" fill="#ccc" rx="5"/><rect width="40" height="40" x="385" y="4" fill="#fcfcfc" class="inner border" rx="5"/><rect width="40" height="40" x="385" y="4" fill="#fcfcfc" rx="5"/></g><g class="keycap" transform="translate(5,5)"><rect width="52" height="52" x="433" y="1" fill="#ccc" class="outer border" rx="5"/><rect width="52" height="52" x="433" y="1" fill="#ccc" rx="5"/><rect width="40" height="40" x="439" y="4" fill="#fcfcfc" class="inner border" rx="5"/><rect width="40" height="40" x="439" y="4" fill="#fcfcfc" rx="5"/></g><g class="keycap" transform="translate(5,5)"><rect width="52" height="52" x="487" y="1" fill="#ccc" class="outer border" rx="5"/><rect width="52" height="52" x="487" y="1" fill="#ccc" rx="5"/><rect width="40" height="40" x="493" y="4" fill="#fcfcfc" class="inner border" rx="5"/><rect width="40" height="40" x="493" y="4" fill="#fcfcfc" rx="5"/></g><g class="keycap" transform="translate(5,5)"><rect width="52" height="52" x="541" y="1" fill="#ccc" class="outer border" rx="5"/><rect width="52" height="52" x="541" y="1" fill="#ccc" rx="5"/><rect width="40" height="40" x="547" y="4" fill="#fcfcfc" class="inner border" rx="5"/><rect width="40" height="40" x="547" y="4" fill="#fcfcfc" rx="5"/></g><g class="keycap" transform="translate(5,5)"><rect width="52" height="52" x="595" y="1" fill="#ccc" class="outer border" rx="5"/><rect width="52" height="52" x="595" y="1" fill="#ccc" rx="5"/><rect width="40" height="40" x="601" y="4" fill="#fcfcfc" class="inner border" rx="5"/><rect width="40" height="40" x="601" y="4" fill="#fcfcfc" rx="5"/></g><g class="keycap" transform="translate(5,5)"><rect width="52" height="52" x="649" y="1" fill="#ccc" class="outer border" rx="5"/><rect width="52" height="52" x="649" y="1" fill="#ccc" rx="5"/><rect width="40" height="40" x="655" y="4" fill="#fcfcfc" class="inner border" rx="5"/><rect width="40" height="40" x="655" y="4" fill="#fcfcfc" rx="5"/></g><g class="keycap" transform="translate(5,5)"><rect width="106" height="52" x="703" y="1" fill="#ccc" class="outer border" rx="5"/><rect width="106" height="52" x="703" y="1" fill="#ccc" rx="5"/><rect width="94" height="40" x="709" y="4" fill="#fcfcfc" class="inner border" rx="5"/><rect width="94" height="40" x="709" y="4" fill="#fcfcfc" rx="5"/></g><g class="keycap" transform="translate(5,5)"><rect width="79" height="52" x="1" y="55" fill="#857eb1" class="outer border" rx="5"/><rect width="79" height="52" x="1" y="55" fill="#857eb1" rx="5"/><rect width="67" height="40" x="7" y="58" fill="#a39cd1" class="inner border" rx="5"/><rect width="67" height="40" x="7" y="58" fill="#a39cd1" rx="5"/></g><g class="keycap" transform="translate(5,5)"><rect width="52" height="52" x="82" y="55" fill="#ff6d1a" class="outer border" rx="5"/><rect width="52" height="52" x="82" y="55" fill="#ff6d1a" rx="5"/><rect width="40" height="40" x="88" y="58" fill="#ff9140" class="inner border" rx="5"/><rect width="40" height="40" x="88" y="58" fill="#ff9140" rx="5"/></g><g class="keycap" transform="translate(5,5)"><rect width="52" height="52" x="136" y="55" fill="#ff6d1a" class="outer border" rx="5"/><rect width="52" height="52" x="136" y="55" fill="#ff6d1a" rx="5"/><rect width="40" height="40" x="142" y="58" fill="#ff9140" class="inner border" rx="5"/><rect width="40" height="40" x="142" y="58" fill="#ff9140" rx="5"/></g><g class="keycap" transform="translate(5,5)"><rect width="52" height="52" x="190" y="55" fill="#ccc" class="outer border" rx="5"/><rect width="52" height="52" x="190" y="55" fill="#ccc" rx="5"/><rect width="40" height="40" x="196" y="58" fill="#fcfcfc" class="inner border" rx="5"/><rect width="40" height="40" x="196" y="58" fill="#fcfcfc" rx="5"/></g><g class="keycap" transform="translate(5,5)"><rect width="52" height="52" x="244" y="55" fill="#ccc" class="outer border" rx="5"/><rect width="52" height="52" x="244" y="55" fill="#ccc" rx="5"/><rect width="40" height="40" x="250" y="58" fill="#fcfcfc" class="inner border" rx="5"/><rect width="40" height="40" x="250" y="58" fill="#fcfcfc" rx="5"/></g><g class="keycap" transform="translate(5,5)"><rect width="52" height="52" x="298" y="55" fill="#ccc" class="outer border" rx="5"/><rect width="52" height="52" x="298" y="55" fill="#ccc" rx="5"/><rect width="40" height="40" x="304" y="58" fill="#fcfcfc" class="inner border" rx="5"/><rect width="40" height="40" x="304" y="58" fill="#fcfcfc" rx="5"/></g><g class="keycap" transform="translate(5,5)"><rect width="52" height="52" x="352" y="55" fill="#ccc" class="outer border" rx="5"/><rect width="52" height="52" x="352" y="55" fill="#ccc" rx="5"/><rect width="40" height="40" x="358" y="58" fill="#fcfcfc" class="inner border" rx="5"/><rect width="40" height="40" x="358" y="58" fill="#fcfcfc" rx="5"/></g><g class="keycap" transform="translate(5,5)"><rect width="52" height="52" x="406" y="55" fill="#ccc" class="outer border" rx="5"/><rect width="52" height="52" x="406" y="55" fill="#ccc" rx="5"/><rect width="40" height="40" x="412" y="58" fill="#fcfcfc" class="inner border" rx="5"/><rect width="40" height="40" x="412" y="58" fill="#fcfcfc" rx="5"/></g><g class="keycap" transform="translate(5,5)"><rect width="52" height="52" x="460" y="55" fill="#ccc" class="outer border" rx="5"/><rect width="52" height="52" x="460" y="55" fill="#ccc" rx="5"/><rect width="40" height="40" x="466" y="58" fill="#fcfcfc" class="inner border" rx="5"/><rect width="40" height="40" x="466" y="58" fill="#fcfcfc" rx="5"/></g><g class="keycap" transform="translate(5,5)"><rect width="52" height="52" x="514" y="55" fill="#ccc" class="outer border" rx="5"/><rect width="52" height="52" x="514" y="55" fill="#ccc" rx="5"/><rect width="40" height="40" x="520" y="58" fill="#fcfcfc" class="inner border" rx="5"/><rect width="40" height="40" x="520" y="58" fill="#fcfcfc" rx="5"/></g><g class="keycap" transform="translate(5,5)"><rect width="52" height="52" x="568" y="55" fill="#ff6d1a" class="outer border" rx="5"/><rect width="52" height="52" x="568" y="55" fill="#ff6d1a" rx="5"/><rect width="40" height="40" x="574" y="58" fill="#ff9140" class="inner border" rx="5"/><rect width="40" height="40" x="574" y="58" fill="#ff9140" rx="5"/></g><g class="keycap" transform="translate(5,5)"><rect width="52" height="52" x="622" y="55" fill="#ccc" class="outer border" rx="5"/><rect width="52" height="52" x="622" y="55" fill="#ccc" rx="5"/><rect width="40" height="40" x="628" y="58" fill="#fcfcfc" class="inner border" rx="5"/><rect width="40" height="40" x="628" y="58" fill="#fcfcfc" rx="5"/></g><g class="keycap" transform="translate(5,5)"><rect width="52" height="52" x="676" y="55" fill="#ccc" class="outer border" rx="5"/><rect width="52" height="52" x="676" y="55" fill="#ccc" rx="5"/><rect width="40" height="40" x="682" y="58" fill="#fcfcfc" class="inner border" rx="5"/><rect width="40" height="40" x="682" y="58" fill="#fcfcfc" rx="5"/></g><g class="keycap" transform="translate(5,5)"><rect width="79" height="52" x="730" y="55" fill="#ccc" class="outer border" rx="5"/><rect width="79" height="52" x="730" y="55" fill="#ccc" rx="5"/><rect width="67" height="40" x="736" y="58" fill="#fcfcfc" class="inner border" rx="5"/><rect width="67" height="40" x="736" y="58" fill="#fcfcfc" rx="5"/></g><g class="keycap" transform="translate(5,5)"><rect width="92.5" height="52" x="1" y="109" fill="#ccc" class="outer border" rx="5"/><rect width="92.5" height="52" x="1" y="109" fill="#ccc" rx="5"/><rect width="80.5" height="40" x="7" y="112" fill="#fcfcfc" class="inner border" rx="5"/><rect width="80.5" height="40" x="7" y="112" fill="#fcfcfc" rx="5"/></g><g class="keycap" transform="translate(5,5)"><rect width="52" height="52" x="95.5" y="109" fill="#ccc" class="outer border" rx="5"/><rect width="52" height="52" x="95.5" y="109" fill="#ccc" rx="5"/><rect width="40" height="40" x="101.5" y="112" fill="#fcfcfc" class="inner border" rx="5"/><rect width="40" height="40" x="101.5" y="112" fill="#fcfcfc" rx="5"/></g><g class="keycap" transform="translate(5,5)"><rect width="52" height="52" x="149.5" y="109" fill="#ccc" class="outer border" rx="5"/><rect width="52" height="52" x="149.5" y="109" fill="#ccc" rx="5"/><rect width="40" height="40" x="155.5" y="112" fill="#fcfcfc" class="inner border" rx="5"/><rect width="40" height="40" x="155.5" y="112" fill="#fcfcfc" rx="5"/></g><g class="keycap" transform="translate(5,5)"><rect width="52" height="52" x="203.5" y="109" fill="#ff6d1a" class="outer border" rx="5"/><rect width="52" height="52" x="203.5" y="109" fill="#ff6d1a" rx="5"/><rect width="40" height="40" x="209.5" y="112" fill="#ff9140" class="inner border" rx="5"/><rect width="40" height="40" x="209.5" y="112" fill="#ff9140" rx="5"/></g><g class="keycap" transform="translate(5,5)"><rect width="52" height="52" x="257.5" y="109" fill="#ff6d1a" class="outer border" rx="5"/><rect width="52" height="52" x="257.5" y="109" fill="#ff6d1a" rx="5"/><rect width="40" height="40" x="263.5" y="112" fill="#ff9140" class="inner border" rx="5"/><rect width="40" height="40" x="263.5" y="112" fill="#ff9140" rx="5"/></g><g class="keycap" transform="translate(5,5)"><rect width="52" height="52" x="311.5" y="109" fill="#ccc" class="outer border" rx="5"/><rect width="52" height="52" x="311.5" y="109" fill="#ccc" rx="5"/><rect width="40" height="40" x="317.5" y="112" fill="#fcfcfc" class="inner border" rx="5"/><rect width="40" height="40" x="317.5" y="112" fill="#fcfcfc" rx="5"/></g><g class="keycap" transform="translate(5,5)"><rect width="52" height="52" x="365.5" y="109" fill="#ccc" class="outer border" rx="5"/><rect width="52" height="52" x="365.5" y="109" fill="#ccc" rx="5"/><rect width="40" height="40" x="371.5" y="112" fill="#fcfcfc" class="inner border" rx="5"/><rect width="40" height="40" x="371.5" y="112" fill="#fcfcfc" rx="5"/></g><g class="keycap" transform="translate(5,5)"><rect width="52" height="52" x="419.5" y="109" fill="#ccc" class="outer border" rx="5"/><rect width="52" height="52" x="419.5" y="109" fill="#ccc" rx="5"/><rect width="40" height="40" x="425.5" y="112" fill="#fcfcfc" class="inner border" rx="5"/><rect width="40" height="40" x="425.5" y="112" fill="#fcfcfc" rx="5"/></g><g class="keycap" transform="translate(5,5)"><rect width="52" height="52" x="473.5" y="109" fill="#ccc" class="outer border" rx="5"/><rect width="52" height="52" x="473.5" y="109" fill="#ccc" rx="5"/><rect width="40" height="40" x="479.5" y="112" fill="#fcfcfc" class="inner border" rx="5"/><rect width="40" height="40" x="479.5" y="112" fill="#fcfcfc" rx="5"/></g><g class="keycap" transform="translate(5,5)"><rect width="52" height="52" x="527.5" y="109" fill="#ccc" class="outer border" rx="5"/><rect width="52" height="52" x="527.5" y="109" fill="#ccc" rx="5"/><rect width="40" height="40" x="533.5" y="112" fill="#fcfcfc" class="inner border" rx="5"/><rect width="40" height="40" x="533.5" y="112" fill="#fcfcfc" rx="5"/></g><g class="keycap" transform="translate(5,5)"><rect width="52" height="52" x="581.5" y="109" fill="#ccc" class="outer border" rx="5"/><rect width="52" height="52" x="581.5" y="109" fill="#ccc" rx="5"/><rect width="40" height="40" x="587.5" y="112" fill="#fcfcfc" class="inner border" rx="5"/><rect width="40" height="40" x="587.5" y="112" fill="#fcfcfc" rx="5"/></g><g class="keycap" transform="translate(5,5)"><rect width="52" height="52" x="635.5" y="109" fill="#ccc" class="outer border" rx="5"/><rect width="52" height="52" x="635.5" y="109" fill="#ccc" rx="5"/><rect width="40" height="40" x="641.5" y="112" fill="#fcfcfc" class="inner border" rx="5"/><rect width="40" height="40" x="641.5" y="112" fill="#fcfcfc" rx="5"/></g><g class="keycap" transform="translate(5,5)"><rect width="119.5" height="52" x="689.5" y="109" fill="#ccc" class="outer border" rx="5"/><rect width="119.5" height="52" x="689.5" y="109" fill="#ccc" rx="5"/><rect width="107.5" height="40" x="695.5" y="112" fill="#fcfcfc" class="inner border" rx="5"/><rect width="107.5" height="40" x="695.5" y="112" fill="#fcfcfc" rx="5"/></g><g class="keycap" transform="translate(5,5)"><rect width="119.5" height="52" x="1" y="163" fill="#ccc" class="outer border" rx="5"/><rect width="119.5" height="52" x="1" y="163" fill="#ccc" rx="5"/><rect width="107.5" height="40" x="7" y="166" fill="#fcfcfc" class="inner border" rx="5"/><rect width="107.5" height="40" x="7" y="166" fill="#fcfcfc" rx="5"/></g><g class="keycap" transform="translate(5,5)"><rect width="52" height="52" x="122.5" y="163" fill="#ff6d1a" class="outer border" rx="5"/><rect width="52" height="52" x="122.5" y="163" fill="#ff6d1a" rx="5"/><rect width="40" height="40" x="128.5" y="166" fill="#ff9140" class="inner border" rx="5"/><rect width="40" height="40" x="128.5" y="166" fill="#ff9140" rx="5"/></g><g class="keycap" transform="translate(5,5)"><rect width="52" height="52" x="176.5" y="163" fill="#ff6d1a" class="outer border" rx="5"/><rect width="52" height="52" x="176.5" y="163" fill="#ff6d1a" rx="5"/><rect width="40" height="40" x="182.5" y="166" fill="#ff9140" class="inner border" rx="5"/><rect width="40" height="40" x="182.5" y="166" fill="#ff9140" rx="5"/></g><g class="keycap" transform="translate(5,5)"><rect width="52" height="52" x="230.5" y="163" fill="#ff6d1a" class="outer border" rx="5"/><rect width="52" height="52" x="230.5" y="163" fill="#ff6d1a" rx="5"/><rect width="40" height="40" x="236.5" y="166" fill="#ff9140" class="inner border" rx="5"/><rect width="40" height="40" x="236.5" y="166" fill="#ff9140" rx="5"/></g><g class="keycap" transform="translate(5,5)"><rect width="52" height="52" x="284.5" y="163" fill="#ccc" class="outer border" rx="5"/><rect width="52" height="52" x="284.5" y="163" fill="#ccc" rx="5"/><rect width="40" height="40" x="290.5" y="166" fill="#fcfcfc" class="inner border" rx="5"/><rect width="40" height="40" x="290.5" y="166" fill="#fcfcfc" rx="5"/></g><g class="keycap" transform="translate(5,5)"><rect width="52" height="52" x="338.5" y="163" fill="#ccc" class="outer border" rx="5"/><rect width="52" height="52" x="338.5" y="163" fill="#ccc" rx="5"/><rect width="40" height="40" x="344.5" y="166" fill="#fcfcfc" class="inner border" rx="5"/><rect width="40" height="40" x="344.5" y="166" fill="#fcfcfc" rx="5"/></g><g class="keycap" transform="translate(5,5)"><rect width="52" height="52" x="392.5" y="163" fill="#ccc" class="outer border" rx="5"/><rect width="52" height="52" x="392.5" y="163" fill="#ccc" rx="5"/><rect width="40" height="40" x="398.5" y="166" fill="#fcfcfc" class="inner border" rx="5"/><rect width="40" height="40" x="398.5" y="166" fill="#fcfcfc" rx="5"/></g><g class="keycap" transform="translate(5,5)"><rect width="52" height="52" x="446.5" y="163" fill="#ff6d1a" class="outer border" rx="5"/><rect width="52" height="52" x="446.5" y="163" fill="#ff6d1a" rx="5"/><rect width="40" height="40" x="452.5" y="166" fill="#ff9140" class="inner border" rx="5"/><rect width="40" height="40" x="452.5" y="166" fill="#ff9140" rx="5"/></g><g class="keycap" transform="translate(5,5)"><rect width="52" height="52" x="500.5" y="163" fill="#ccc" class="outer border" rx="5"/><rect width="52" height="52" x="500.5" y="163" fill="#ccc" rx="5"/><rect width="40" height="40" x="506.5" y="166" fill="#fcfcfc" class="inner border" rx="5"/><rect width="40" height="40" x="506.5" y="166" fill="#fcfcfc" rx="5"/></g><g class="keycap" transform="translate(5,5)"><rect width="52" height="52" x="554.5" y="163" fill="#ccc" class="outer border" rx="5"/><rect width="52" height="52" x="554.5" y="163" fill="#ccc" rx="5"/><rect width="40" height="40" x="560.5" y="166" fill="#fcfcfc" class="inner border" rx="5"/><rect width="40" height="40" x="560.5" y="166" fill="#fcfcfc" rx="5"/></g><g class="keycap" transform="translate(5,5)"><rect width="52" height="52" x="608.5" y="163" fill="#ccc" class="outer border" rx="5"/><rect width="52" height="52" x="608.5" y="163" fill="#ccc" rx="5"/><rect width="40" height="40" x="614.5" y="166" fill="#fcfcfc" class="inner border" rx="5"/><rect width="40" height="40" x="614.5" y="166" fill="#fcfcfc" rx="5"/></g><g class="keycap" transform="translate(5,5)"><rect width="146.5" height="52" x="662.5" y="163" fill="#ccc" class="outer border" rx="5"/><rect width="146.5" height="52" x="662.5" y="163" fill="#ccc" rx="5"/><rect width="134.5" height="40" x="668.5" y="166" fill="#fcfcfc" class="inner border" rx="5"/><rect width="134.5" height="40" x="668.5" y="166" fill="#fcfcfc" rx="5"/></g><g class="keycap" transform="translate(5,5)"><rect width="65.5" height="52" x="1" y="217" fill="#ccc" class="outer border" rx="5"/><rect width="65.5" height="52" x="1" y="217" fill="#ccc" rx="5"/><rect width="53.5" height="40" x="7" y="220" fill="#fcfcfc" class="inner border" rx="5"/><rect width="53.5" height="40" x="7" y="220" fill="#fcfcfc" rx="5"/></g><g class="keycap" transform="translate(5,5)"><rect width="65.5" height="52" x="68.5" y="217" fill="#e26757" class="outer border" rx="5"/><rect width="65.5" height="52" x="68.5" y="217" fill="#e26757" rx="5"/><rect width="53.5" height="40" x="74.5" y="220" fill="#ff8875" class="inner border" rx="5"/><rect width="53.5" height="40" x="74.5" y="220" fill="#ff8875" rx="5"/></g><g class="keycap" transform="translate(5,5)"><rect width="65.5" height="52" x="136" y="217" fill="#857eb1" class="outer border" rx="5"/><rect width="65.5" height="52" x="136" y="217" fill="#857eb1" rx="5"/><rect width="53.5" height="40" x="142" y="220" fill="#a39cd1" class="inner border" rx="5"/><rect width="53.5" height="40" x="142" y="220" fill="#a39cd1" rx="5"/></g><g class="keycap" transform="translate(5,5)"><rect width="335.5" height="52" x="203.5" y="217" fill="#ccc" class="outer border" rx="5"/><rect width="335.5" height="52" x="203.5" y="217" fill="#ccc" rx="5"/><rect width="323.5" height="40" x="209.5" y="220" fill="#fcfcfc" class="inner border" rx="5"/><rect width="323.5" height="40" x="209.5" y="220" fill="#fcfcfc" rx="5"/></g><g class="keycap" transform="translate(5,5)"><rect width="65.5" height="52" x="541" y="217" fill="#ccc" class="outer border" rx="5"/><rect width="65.5" height="52" x="541" y="217" fill="#ccc" rx="5"/><rect width="53.5" height="40" x="547" y="220" fill="#fcfcfc" class="inner border" rx="5"/><rect width="53.5" height="40" x="547" y="220" fill="#fcfcfc" rx="5"/></g><g class="keycap" transform="translate(5,5)"><rect width="52" height="52" x="608.5" y="217" fill="#ccc" class="outer border" rx="5"/><rect width="65.5" height="52" x="608.5" y="217" fill="#ccc" class="outer border" rx="5"/><rect width="52" height="52" x="608.5" y="217" fill="#ccc" rx="5"/><rect width="65.5" height="52" x="608.5" y="217" fill="#ccc" rx="5"/><rect width="40" height="40" x="614.5" y="220" fill="#fcfcfc" class="inner border" rx="5"/><rect width="53.5" height="40" x="614.5" y="220" fill="#fcfcfc" class="inner border" rx="5"/><rect width="40" height="40" x="614.5" y="220" fill="#fcfcfc" rx="5"/><rect width="53.5" height="40" x="614.5" y="220" fill="#fcfcfc" rx="5"/></g><g class="keycap" transform="translate(5,5)"><rect width="65.5" height="52" x="676" y="217" fill="#ccc" class="outer border" rx="5"/><rect width="65.5" height="52" x="676" y="217" fill="#ccc" rx="5"/><rect width="53.5" height="40" x="682" y="220" fill="#fcfcfc" class="inner border" rx="5"/><rect width="53.5" height="40" x="682" y="220" fill="#fcfcfc" rx="5"/></g><g class="keycap" transform="translate(5,5)"><rect width="65.5" height="52" x="743.5" y="217" fill="#ccc" class="outer border" rx="5"/><rect width="65.5" height="52" x="743.5" y="217" fill="#ccc" rx="5"/><rect width="53.5" height="40" x="749.5" y="220" fill="#fcfcfc" class="inner border" rx="5"/><rect width="53.5" height="40" x="749.5" y="220" fill="#fcfcfc" rx="5"/></g></g></g></svg>